<svg width="1501" height="379" viewBox="0 0 1501 379" fill="none" xmlns="http://www.w3.org/2000/svg">
<path fill-rule="evenodd" clip-rule="evenodd" d="M178.026 24.7239H173.08C173.181 21.4869 173.232 18.1994 173.195 14.8286C174.887 18.1813 176.491 21.4689 178.026 24.7239Z" fill="#60C8DC"/>
<path fill-rule="evenodd" clip-rule="evenodd" d="M199.75 88.5656H181.014L193.96 65.2344C196.476 73.4298 198.381 81.1984 199.75 88.5656Z" fill="#60C8DC"/>
<path fill-rule="evenodd" clip-rule="evenodd" d="M181.014 88.5654L195.241 120.497L201.064 133.597C200.069 140.291 198.479 146.545 196.44 152.411H177.519H145.565L163.288 120.497L181.014 88.5654Z" fill="#00B0CD"/>
<path fill-rule="evenodd" clip-rule="evenodd" d="M169.064 61.7622L181.014 88.5691H161.619C164.639 80.2724 167.156 71.3898 169.064 61.7622Z" fill="#22BECD"/>
<path fill-rule="evenodd" clip-rule="evenodd" d="M181.014 88.5656L193.959 65.2344C190.146 52.7604 184.895 39.2882 178.026 24.7202H173.079C172.692 38.2575 171.291 50.5289 169.063 61.7587L181.014 88.5656Z" fill="#3FC3DB"/>
<path fill-rule="evenodd" clip-rule="evenodd" d="M199.75 88.5654H181.014L195.245 120.497L201.068 133.597C203.06 120.432 202.871 105.56 199.75 88.5654Z" fill="#3FC3DB"/>
<path fill-rule="evenodd" clip-rule="evenodd" d="M96.9687 186.751L110.117 216.271H84.9824C86.9741 205.634 90.8416 195.518 96.9687 186.751Z" fill="#1A4699"/>
<path fill-rule="evenodd" clip-rule="evenodd" d="M110.117 216.271L120.937 240.564C109.813 252.499 101.864 264.991 100.883 280.116H93.1517C90.2329 273.675 87.8864 266.662 86.2134 259.328L92.3912 248.199L110.117 216.271Z" fill="#1A4699"/>
<path fill-rule="evenodd" clip-rule="evenodd" d="M137.498 134.306L145.566 152.411H124.11C128.734 146.476 133.225 140.494 137.498 134.306Z" fill="#107FC2"/>
<path fill-rule="evenodd" clip-rule="evenodd" d="M145.566 152.411L159.797 184.343L166.058 198.437C159.812 204.708 153.283 210.575 146.884 216.275H142.075H110.121L127.843 184.346L145.566 152.411Z" fill="#107FC2"/>
<path fill-rule="evenodd" clip-rule="evenodd" d="M86.2137 259.331L92.3915 248.203L110.114 216.271H84.9789C82.3499 230.383 83.0415 245.407 86.2137 259.331Z" fill="#253C83"/>
<path fill-rule="evenodd" clip-rule="evenodd" d="M100.883 280.12H93.1519C95.7664 285.903 98.8408 291.212 102.285 295.849C100.985 290.283 100.561 285.057 100.883 280.12Z" fill="#253C83"/>
<path fill-rule="evenodd" clip-rule="evenodd" d="M110.117 216.271L127.839 184.343L145.562 152.411H124.106C115.955 162.881 107.398 173.164 98.9565 184.039C98.2649 184.914 97.6058 185.826 96.9648 186.752L110.117 216.271Z" fill="#205AA8"/>
<path fill-rule="evenodd" clip-rule="evenodd" d="M146.88 216.271H142.071H110.117L120.937 240.564C128.517 232.423 137.562 224.55 146.88 216.271Z" fill="#205AA8"/>
<path fill-rule="evenodd" clip-rule="evenodd" d="M145.566 152.411L163.288 120.497L181.014 88.5654H161.619C155.372 105.799 146.985 120.53 137.498 134.306L145.566 152.411Z" fill="#1E97D4"/>
<path fill-rule="evenodd" clip-rule="evenodd" d="M196.44 152.411H177.519H145.565L159.797 184.343L166.058 198.437C167.072 197.424 168.086 196.397 169.078 195.37C180.539 183.431 190.483 169.572 196.44 152.411Z" fill="#1E97D4"/>
<path fill-rule="evenodd" clip-rule="evenodd" d="M246.558 152.411H241.409H214.166C215.365 148.078 216.295 143.611 216.918 138.993L227.181 120.497L229.071 117.108C236.922 130.089 242.81 141.995 246.558 152.411Z" fill="#60C8DC"/>
<path fill-rule="evenodd" clip-rule="evenodd" d="M212.225 158.632L223.686 184.343L235.401 210.658C233.612 212.564 231.722 214.419 229.781 216.271H205.964H174.01L175.578 213.439C190.954 198.065 204.849 180.043 212.225 158.632Z" fill="#00B0CD"/>
<path fill-rule="evenodd" clip-rule="evenodd" d="M216.918 138.993L227.181 120.497L229.071 117.109C224.346 109.304 218.925 101.108 212.866 92.6128C217.827 109.488 218.809 124.899 216.918 138.993Z" fill="#3FC3DB"/>
<path fill-rule="evenodd" clip-rule="evenodd" d="M246.558 152.411H241.409H214.166C213.594 154.52 212.935 156.592 212.225 158.632L223.686 184.343L235.401 210.658C244.313 201.182 251.048 190.596 251.269 175.558C251.352 169.102 249.748 161.297 246.558 152.411Z" fill="#3FC3DB"/>
<path fill-rule="evenodd" clip-rule="evenodd" d="M128.973 258.572L138.576 280.12H118.964C121.09 272.684 124.599 265.281 128.973 258.572Z" fill="#1A4699"/>
<path fill-rule="evenodd" clip-rule="evenodd" d="M138.577 280.12L152.79 312.048L161.72 332.077C143.034 329.633 127.807 321.56 121.057 311.661L138.577 280.12Z" fill="#1A4699"/>
<path fill-rule="evenodd" clip-rule="evenodd" d="M173.619 215.381L174.007 216.275H172.707C173.011 215.971 173.315 215.682 173.619 215.381Z" fill="#263779"/>
<path fill-rule="evenodd" clip-rule="evenodd" d="M174.006 216.271L188.238 248.203L193.673 260.391C191.53 266.409 190.244 273.002 190.161 280.116H170.512H138.573L156.281 248.203L174.006 216.271Z" fill="#107FC2"/>
<path fill-rule="evenodd" clip-rule="evenodd" d="M173.214 332.819L184.744 312.048L192.443 298.189C194.771 307.209 199.026 316.869 205.711 327.068C194.688 331.115 183.614 332.851 173.214 332.819Z" fill="#107FC2"/>
<path fill-rule="evenodd" clip-rule="evenodd" d="M121.053 311.661L138.576 280.12H118.964C116.567 288.551 115.926 297.028 117.798 304.634C118.406 307.043 119.5 309.401 121.053 311.661Z" fill="#253C83"/>
<path fill-rule="evenodd" clip-rule="evenodd" d="M138.577 280.12L156.284 248.206L174.007 216.274H172.707C163.61 225.092 154.104 233.016 145.211 240.213C139.236 245.052 133.616 251.425 128.973 258.572L138.577 280.12Z" fill="#205AA8"/>
<path fill-rule="evenodd" clip-rule="evenodd" d="M173.214 332.819L184.744 312.048L192.442 298.189C190.788 291.849 190.096 285.816 190.165 280.116H170.516H138.577L152.79 312.044L161.72 332.074C165.417 332.547 169.267 332.819 173.214 332.819Z" fill="#205AA8"/>
<path fill-rule="evenodd" clip-rule="evenodd" d="M174.007 216.271L175.575 213.439C174.934 214.097 174.275 214.737 173.616 215.378L174.007 216.271Z" fill="#114C97"/>
<path fill-rule="evenodd" clip-rule="evenodd" d="M229.777 216.271H205.961H174.007L188.238 248.203L193.674 260.391C194.822 257.169 196.223 254.102 197.809 251.219C205.794 236.774 218.657 226.828 229.777 216.271Z" fill="#1E97D4"/>
<mask id="mask0_2070_18555" style="mask-type:luminance" maskUnits="userSpaceOnUse" x="60" y="169" width="233" height="196">
<path d="M104.544 340.016C132.583 361.864 171.389 368.371 199.496 362.219C272.957 346.121 325.943 257.895 267.253 179.033C270.255 223.439 173.196 251.273 221.409 318.507C239.435 310.012 262.122 292.511 272.674 251.476C273.974 312.254 216.125 354.334 160.152 347.35C76.2733 336.898 41.0315 232.173 92.7318 169.424C38.732 229.172 59.3585 304.8 104.544 340.016Z" fill="white"/>
</mask>
<g mask="url(#mask0_2070_18555)">
<path d="M325.943 169.42H38.7319V368.371H325.943V169.42Z" fill="url(#paint0_radial_2070_18555)"/>
</g>
<path d="M358.573 296.315C347.17 287.234 340.666 273.299 339.077 254.499H380.706C381.344 262.944 383.897 268.919 388.362 272.42C392.827 275.924 399.044 277.675 407.022 277.675C413.721 277.675 419.225 276.004 423.531 272.659C427.837 269.313 429.991 264.695 429.991 258.799C429.991 254.022 428.872 250.199 426.642 247.331C424.407 244.463 420.859 241.953 415.995 239.805C411.128 237.653 404.071 235.226 394.822 232.517C378.074 227.421 364.755 221.168 354.869 213.761C344.976 206.354 340.036 195.88 340.036 182.339C340.036 167.207 345.421 155.301 356.187 146.617C366.953 137.937 381.825 133.593 400.808 133.593C421.702 133.593 437.571 137.698 448.416 145.901C459.262 154.107 465.403 166.809 466.837 184.014H426.403C425.124 171.908 417.23 165.854 402.716 165.854C396.336 165.854 391.309 167.131 387.645 169.677C383.973 172.227 382.14 175.97 382.14 180.907C382.14 184.889 383.136 188.158 385.131 190.704C387.123 193.254 390.513 195.601 395.3 197.753C400.084 199.905 407.181 202.336 416.593 205.041C429.991 209.023 440.554 212.925 448.293 216.748C456.028 220.571 461.967 225.587 466.117 231.801C470.263 238.014 472.338 246.058 472.338 255.935C472.338 266.771 469.586 276.286 464.085 284.489C458.581 292.695 450.766 298.984 440.638 303.364C430.505 307.744 418.664 309.936 405.11 309.936C385.49 309.936 369.977 305.397 358.573 296.315Z" fill="#107FC2"/>
<path d="M571.625 289.625H569.231C565.244 296.16 559.899 301.093 553.2 304.439C546.501 307.784 539.642 309.455 532.624 309.455C505.349 309.455 491.711 294.323 491.711 264.055V189.985H530.473V256.413C530.473 265.176 531.947 271.548 534.898 275.527C537.846 279.509 542.514 281.502 548.894 281.502C554.793 281.502 559.66 279.035 563.488 274.095C567.316 269.158 569.231 262.546 569.231 254.261V189.985H608.228V306.113H571.625V289.625Z" fill="#107FC2"/>
<path d="M670.912 189.985V210.057H672.824C676.97 194.766 688.453 187.12 707.276 187.12C709.347 187.12 711.104 187.279 712.541 187.598V222.007C706.957 221.052 702.254 220.574 698.426 220.574C681.678 220.574 673.305 233.32 673.305 258.806V306.116H634.069V189.985H670.912Z" fill="#107FC2"/>
<path d="M840.538 254.261H759.194C759.991 263.183 762.221 270.149 765.893 275.169C769.562 280.185 774.743 282.695 781.443 282.695C786.704 282.695 791.014 281.342 794.363 278.634C797.713 275.928 800.023 272.181 801.302 267.404H838.387C836.63 280.467 830.851 290.782 821.041 298.348C811.231 305.914 798.35 309.697 782.402 309.697C770.597 309.697 760.07 307.267 750.822 302.41C741.569 297.552 734.352 290.503 729.17 281.263C723.985 272.026 721.396 260.952 721.396 248.051C721.396 235.787 724.064 224.994 729.409 215.674C734.751 206.354 742.167 199.186 751.658 194.169C761.146 189.153 772.031 186.643 784.314 186.643C802.019 186.643 815.812 191.703 825.705 201.815C835.595 211.935 840.538 226.629 840.538 245.902V254.261ZM801.78 237.772C801.78 222 795.16 214.115 781.921 214.115C775.859 214.115 770.876 216.068 766.969 219.971C763.058 223.877 760.548 229.808 759.433 237.772H801.78Z" fill="#107FC2"/>
<path d="M981.689 171.106H907.762V206.47H974.512V238.011H907.762V306.109H865.176V137.174H981.689V171.106Z" fill="#107FC2"/>
<path d="M1001.78 137.177H1040.78V306.113H1001.78V137.177Z" fill="#107FC2"/>
<path d="M1089.11 301.693C1079.69 296.518 1072.4 289.31 1067.22 280.069C1062.03 270.832 1059.44 260.159 1059.44 248.051C1059.44 235.946 1062.03 225.233 1067.22 215.913C1072.4 206.593 1079.69 199.348 1089.11 194.169C1098.51 188.994 1109.2 186.404 1121.16 186.404C1133.29 186.404 1144.01 188.997 1153.34 194.169C1162.67 199.348 1169.93 206.593 1175.11 215.913C1180.3 225.233 1182.89 235.946 1182.89 248.051C1182.89 260.159 1180.3 270.832 1175.11 280.069C1169.93 289.31 1162.67 296.518 1153.34 301.693C1144.01 306.869 1133.29 309.458 1121.16 309.458C1109.2 309.458 1098.51 306.865 1089.11 301.693ZM1137.91 273.017C1141.9 266.886 1143.9 258.561 1143.9 248.047C1143.9 237.215 1141.9 228.774 1137.91 222.719C1133.93 216.669 1128.34 213.638 1121.16 213.638C1113.99 213.638 1108.4 216.665 1104.42 222.719C1100.43 228.774 1098.43 237.215 1098.43 248.047C1098.43 258.561 1100.43 266.886 1104.42 273.017C1108.4 279.151 1113.99 282.218 1121.16 282.218C1128.34 282.218 1133.92 279.154 1137.91 273.017Z" fill="#107FC2"/>
<path d="M1223.32 189.985C1229.22 214.039 1234.81 241.36 1240.07 271.943H1242.23L1260.65 189.985H1297.49C1299.56 198.589 1302.52 211.49 1306.35 228.694L1316.4 271.943H1318.31C1323.41 242.474 1328.91 215.157 1334.82 189.985H1372.38L1339.13 306.113H1298.21L1279.31 229.172H1277.4L1259.21 306.113H1218.06L1184.33 189.985H1223.32Z" fill="#107FC2"/>
<path d="M1401.38 168.863V190.198H1395.48V168.863H1387.33V163.435H1409.53V168.863H1401.38Z" fill="#107FC2"/>
<path d="M1435 190.198V172.726L1427.45 184.155H1427.3L1419.84 172.838V190.198H1414.05V163.435H1420.41L1427.45 174.751L1434.5 163.435H1440.85V190.198H1435Z" fill="#107FC2"/>
<defs>
<radialGradient id="paint0_radial_2070_18555" cx="0" cy="0" r="1" gradientUnits="userSpaceOnUse" gradientTransform="translate(201.443 243.134) scale(162.769 162.565)">
<stop stop-color="#CBDB29"/>
<stop offset="1" stop-color="#176634"/>
</radialGradient>
</defs>
</svg>
